<svg id="svg" xmlns="http://www.w3.org/2000/svg" xmlns:xlink="http://www.w3.org/1999/xlink" width="400" height="204.0625" viewBox="0, 0, 400,204.0625"><g id="svgg"><path id="path0" d="M39.757 18.986 C 38.506 24.442,37.402 29.214,37.304 29.590 L 37.125 30.274 63.640 30.397 C 91.909 30.527,92.188 30.541,98.447 32.148 C 115.336 36.483,121.557 48.561,114.506 63.329 C 108.073 76.805,91.110 84.360,68.092 84.002 L 61.965 83.906 67.229 60.938 C 70.124 48.305,72.495 37.934,72.497 37.891 C 72.498 37.848,64.144 37.813,53.932 37.813 L 35.364 37.813 35.043 39.297 C 34.444 42.068,19.981 104.528,19.808 105.093 C 19.556 105.914,80.574 105.737,86.047 104.901 C 100.279 102.728,109.891 99.849,120.781 94.500 C 137.978 86.053,150.680 73.086,154.819 59.753 C 156.896 53.061,156.394 40.652,153.733 32.918 C 152.787 30.170,153.122 28.816,154.221 30.941 C 154.600 31.675,170.786 78.173,186.377 123.318 L 188.009 128.041 185.489 128.238 C 184.103 128.345,178.801 128.435,173.707 128.436 C 129.722 128.445,76.046 132.763,45.000 138.791 C -20.826 151.572,7.905 170.270,104.688 177.636 C 119.362 178.753,129.100 179.304,147.656 180.068 C 160.808 180.610,218.306 180.608,231.250 180.067 C 306.649 176.910,356.367 169.085,367.312 158.650 C 383.227 143.478,311.518 129.950,207.245 128.455 C 197.051 128.308,188.666 128.139,188.614 128.079 C 188.561 128.018,194.492 121.078,201.793 112.656 C 209.095 104.234,228.047 82.355,243.908 64.036 L 272.748 30.727 282.858 30.520 C 297.965 30.211,319.705 30.270,323.505 30.631 C 342.473 32.429,352.431 40.349,351.789 53.125 C 350.980 69.229,336.302 80.931,313.575 83.590 C 309.624 84.052,296.250 84.270,296.250 83.872 C 296.250 83.711,306.249 40.590,306.767 38.516 L 306.943 37.812 288.378 37.812 L 269.814 37.812 262.200 70.703 C 258.013 88.793,254.482 104.058,254.354 104.625 L 254.121 105.655 285.576 105.537 C 318.964 105.412,317.552 105.468,326.672 103.888 C 355.025 98.973,380.084 82.405,387.711 63.528 C 398.624 36.522,377.390 13.165,338.483 9.378 C 336.488 9.183,319.033 9.062,292.980 9.062 L 250.714 9.062 248.853 11.328 C 247.829 12.574,242.632 18.867,237.303 25.313 C 219.673 46.639,206.815 63.212,203.047 69.468 L 201.981 71.237 201.595 69.134 C 200.567 63.525,197.724 54.258,189.040 28.203 L 182.660 9.063 112.346 9.064 L 42.031 9.065 39.757 18.986 M201.250 147.312 C 227.862 150.527,231.384 157.732,208.281 161.696 C 182.327 166.149,142.188 162.075,142.188 154.988 C 142.188 151.763,152.325 148.483,166.250 147.202 C 168.227 147.020,170.406 146.818,171.094 146.752 C 174.676 146.412,197.273 146.832,201.250 147.312 M337.065 178.932 C 336.498 180.408,336.758 180.625,339.090 180.625 L 341.305 180.625 341.122 181.797 C 341.021 182.441,340.656 185.219,340.310 187.969 C 339.965 190.719,339.607 193.426,339.515 193.984 C 339.347 195.000,339.347 195.000,340.700 195.000 L 342.053 195.000 342.955 187.813 L 343.858 180.625 346.148 180.625 L 348.438 180.625 348.438 179.531 L 348.438 178.438 342.846 178.438 C 338.035 178.438,337.228 178.507,337.065 178.932 M352.188 178.567 C 352.188 178.638,351.128 182.118,349.834 186.301 C 348.539 190.484,347.402 194.162,347.306 194.474 C 347.157 194.961,347.293 195.027,348.269 194.942 L 349.406 194.844 351.346 188.959 L 353.286 183.075 354.501 188.803 C 355.170 191.954,355.828 194.656,355.963 194.808 C 356.099 194.960,357.518 192.464,359.117 189.261 C 362.441 182.600,362.444 182.599,362.481 188.594 C 362.517 194.293,362.662 195.000,363.791 195.000 L 364.688 195.000 364.688 186.719 L 364.688 178.438 363.672 178.444 C 362.680 178.450,362.599 178.561,360.188 183.209 C 356.679 189.975,357.108 189.800,355.949 184.943 C 354.251 177.830,354.501 178.438,353.269 178.438 C 352.674 178.438,352.188 178.496,352.188 178.567 " stroke="none" fill="#000000" fill-rule="evenodd"></path></g></svg>